<svg xmlns="http://www.w3.org/2000/svg" viewBox="0 0 347.25 100" role="img" aria-label="Greenhouse"><title>Greenhouse</title><g transform="translate(0 0) scale(.44)"><path d="M112.4 28C105 28 100 30 96 34L36 80Q30 85 30 94V171Q30 192 51 192H82V130Q82 99 112.4 99Z M112 99Q142 99 142 130V192H173Q194 192 194 171V94Q194 85 188 80L128 34C124 30 119 28 112 28Z" fill="#235D4D"/><path d="M112 177C86 163 88 134 112 115C137 134 138 163 112 177Z" fill="#B6CA68"/></g><path transform="translate(108 65) scale(0.041 -0.041)" fill="#235D4D" d="M416 -10Q299 -10 218.5 34.0Q138 78 96.0 159.0Q54 240 54 351Q54 435 78.5 502.0Q103 569 149.5 616.5Q196 664 263.0 689.5Q330 715 415 715Q471 715 527.5 701.5Q584 688 634 656Q651 645 656.5 629.0Q662 613 658.0 596.5Q654 580 643.0 568.0Q632 556 615.5 553.0Q599 550 579 561Q541 583 502.0 593.0Q463 603 415 603Q341 603 290.0 573.5Q239 544 213.5 488.0Q188 432 188 351Q188 228 247.0 164.0Q306 100 422 100Q462 100 503.0 108.0Q544 116 583 130L558 73V286H448Q423 286 409.5 299.0Q396 312 396 334Q396 357 409.5 369.0Q423 381 448 381H613Q638 381 651.5 367.5Q665 354 665 329V86Q665 64 656.5 49.0Q648 34 629 27Q585 11 528.0 0.5Q471 -10 416 -10ZM865 -8Q834 -8 817.5 8.5Q801 25 801 56V434Q801 465 817.0 481.0Q833 497 862 497Q891 497 907.0 481.0Q923 465 923 434V371H913Q927 431 968.0 462.0Q1009 493 1077 499Q1098 501 1110.5 488.5Q1123 476 1125 450Q1127 425 1113.5 409.5Q1100 394 1073 391L1051 389Q990 383 959.0 351.5Q928 320 928 263V56Q928 25 912.0 8.5Q896 -8 865 -8ZM1434 -10Q1351 -10 1291.0 21.0Q1231 52 1198.5 109.0Q1166 166 1166 244Q1166 320 1197.5 377.0Q1229 434 1284.5 466.5Q1340 499 1411 499Q1463 499 1504.5 482.0Q1546 465 1575.5 433.0Q1605 401 1620.5 355.5Q1636 310 1636 253Q1636 235 1623.5 225.5Q1611 216 1588 216H1267V288H1548L1532 273Q1532 319 1518.5 350.0Q1505 381 1479.5 397.5Q1454 414 1416 414Q1374 414 1344.5 394.5Q1315 375 1299.5 339.5Q1284 304 1284 255V248Q1284 166 1322.5 125.5Q1361 85 1436 85Q1462 85 1494.5 91.5Q1527 98 1556 114Q1577 126 1593.0 124.5Q1609 123 1618.5 113.0Q1628 103 1630.0 88.5Q1632 74 1624.5 59.0Q1617 44 1599 33Q1564 11 1518.5 0.5Q1473 -10 1434 -10ZM1976 -10Q1893 -10 1833.0 21.0Q1773 52 1740.5 109.0Q1708 166 1708 244Q1708 320 1739.5 377.0Q1771 434 1826.5 466.5Q1882 499 1953 499Q2005 499 2046.5 482.0Q2088 465 2117.5 433.0Q2147 401 2162.5 355.5Q2178 310 2178 253Q2178 235 2165.5 225.5Q2153 216 2130 216H1809V288H2090L2074 273Q2074 319 2060.5 350.0Q2047 381 2021.5 397.5Q1996 414 1958 414Q1916 414 1886.5 394.5Q1857 375 1841.5 339.5Q1826 304 1826 255V248Q1826 166 1864.5 125.5Q1903 85 1978 85Q2004 85 2036.5 91.5Q2069 98 2098 114Q2119 126 2135.0 124.5Q2151 123 2160.5 113.0Q2170 103 2172.0 88.5Q2174 74 2166.5 59.0Q2159 44 2141 33Q2106 11 2060.5 0.5Q2015 -10 1976 -10ZM2339 -8Q2309 -8 2293.0 8.5Q2277 25 2277 56V434Q2277 465 2293.0 481.0Q2309 497 2338 497Q2367 497 2383.0 481.0Q2399 465 2399 434V366L2388 391Q2410 444 2456.5 471.5Q2503 499 2562 499Q2621 499 2659.0 477.0Q2697 455 2716.0 410.5Q2735 366 2735 298V56Q2735 25 2719.0 8.5Q2703 -8 2673 -8Q2643 -8 2626.5 8.5Q2610 25 2610 56V292Q2610 349 2588.5 375.0Q2567 401 2522 401Q2467 401 2434.5 366.5Q2402 332 2402 275V56Q2402 -8 2339 -8ZM2924 -8Q2894 -8 2878.0 8.5Q2862 25 2862 56V650Q2862 681 2878.0 697.0Q2894 713 2924 713Q2954 713 2970.5 697.0Q2987 681 2987 650V391H2973Q2995 444 3041.5 471.5Q3088 499 3147 499Q3206 499 3244.0 477.0Q3282 455 3301.0 410.5Q3320 366 3320 298V56Q3320 25 3304.0 8.5Q3288 -8 3258 -8Q3228 -8 3211.5 8.5Q3195 25 3195 56V292Q3195 349 3173.5 375.0Q3152 401 3107 401Q3052 401 3019.5 366.5Q2987 332 2987 275V56Q2987 -8 2924 -8ZM3670 -10Q3594 -10 3538.0 21.0Q3482 52 3451.0 109.5Q3420 167 3420 245Q3420 304 3437.5 350.5Q3455 397 3488.0 430.5Q3521 464 3567.0 481.5Q3613 499 3670 499Q3746 499 3802.0 468.0Q3858 437 3889.0 380.0Q3920 323 3920 245Q3920 186 3902.5 139.0Q3885 92 3852.0 58.5Q3819 25 3773.0 7.5Q3727 -10 3670 -10ZM3670 85Q3707 85 3735.0 103.0Q3763 121 3778.5 156.5Q3794 192 3794 245Q3794 325 3760.0 364.5Q3726 404 3670 404Q3633 404 3605.0 386.5Q3577 369 3561.5 333.5Q3546 298 3546 245Q3546 166 3580.0 125.5Q3614 85 3670 85ZM4200 -10Q4139 -10 4099.0 12.5Q4059 35 4039.5 80.0Q4020 125 4020 192V434Q4020 466 4036.0 481.5Q4052 497 4082 497Q4112 497 4128.5 481.5Q4145 466 4145 434V190Q4145 138 4166.0 113.0Q4187 88 4233 88Q4283 88 4315.0 122.5Q4347 157 4347 214V434Q4347 466 4363.0 481.5Q4379 497 4409 497Q4439 497 4455.5 481.5Q4472 466 4472 434V56Q4472 -8 4411 -8Q4382 -8 4366.0 8.5Q4350 25 4350 56V132L4364 102Q4343 48 4300.5 19.0Q4258 -10 4200 -10ZM4781 -10Q4738 -10 4690.0 -1.0Q4642 8 4604 30Q4588 40 4581.5 53.5Q4575 67 4576.5 80.5Q4578 94 4586.5 104.0Q4595 114 4608.5 117.0Q4622 120 4638 112Q4678 93 4713.0 85.5Q4748 78 4782 78Q4830 78 4853.5 94.5Q4877 111 4877 138Q4877 161 4861.5 173.5Q4846 186 4815 192L4715 211Q4653 223 4620.5 256.5Q4588 290 4588 343Q4588 391 4614.5 426.0Q4641 461 4688.0 480.0Q4735 499 4796 499Q4840 499 4878.5 489.5Q4917 480 4953 460Q4968 452 4973.5 439.0Q4979 426 4976.0 412.5Q4973 399 4964.0 388.5Q4955 378 4941.5 375.5Q4928 373 4911 381Q4880 397 4851.5 404.0Q4823 411 4797 411Q4748 411 4724.5 394.0Q4701 377 4701 349Q4701 328 4715.0 314.0Q4729 300 4758 295L4858 276Q4923 264 4956.5 232.0Q4990 200 4990 146Q4990 73 4933.0 31.5Q4876 -10 4781 -10ZM5331 -10Q5248 -10 5188.0 21.0Q5128 52 5095.5 109.0Q5063 166 5063 244Q5063 320 5094.5 377.0Q5126 434 5181.5 466.5Q5237 499 5308 499Q5360 499 5401.5 482.0Q5443 465 5472.5 433.0Q5502 401 5517.5 355.5Q5533 310 5533 253Q5533 235 5520.5 225.5Q5508 216 5485 216H5164V288H5445L5429 273Q5429 319 5415.5 350.0Q5402 381 5376.5 397.5Q5351 414 5313 414Q5271 414 5241.5 394.5Q5212 375 5196.5 339.5Q5181 304 5181 255V248Q5181 166 5219.5 125.5Q5258 85 5333 85Q5359 85 5391.5 91.5Q5424 98 5453 114Q5474 126 5490.0 124.5Q5506 123 5515.5 113.0Q5525 103 5527.0 88.5Q5529 74 5521.5 59.0Q5514 44 5496 33Q5461 11 5415.5 0.5Q5370 -10 5331 -10Z"/></svg>
