<svg xmlns="http://www.w3.org/2000/svg" viewBox="5.0 5.0 533.4 116.0" role="img" aria-label="Greenhouse" color="#0D9488">
  <title>Greenhouse</title>
  <g fill="none" stroke="currentColor" stroke-width="6" stroke-linecap="round" stroke-linejoin="round">
    <path d="M22 104 L22 56 L65 22 L108 56 L108 104 Z"/>
    <path d="M22 56 L108 56"/>
    <path d="M44 56 L44 104"/>
    <path d="M86 56 L86 104"/>
    <path d="M65 104 L65 84"/>
    <path d="M65 84 C69 78 74 75 76 65 C72 69 67 77 65 84 Z"/>
    <path d="M65 84 C61 78 56 75 54 65 C58 69 63 77 65 84 Z"/>
  </g>
  <g transform="translate(138.00 89.00) scale(0.06878 -0.06878)">
    <path d="M698 37Q644 11 579.5 -3.5Q515 -18 431 -18Q345 -18 274.0 9.5Q203 37 152.0 86.5Q101 136 72.5 204.5Q44 273 44 356Q44 441 73.5 509.5Q103 578 154.5 626.0Q206 674 276.0 700.0Q346 726 428 726Q513 726 583.5 701.5Q654 677 697 637L610 543Q583 573 534.5 594.0Q486 615 429 615Q373 615 327.5 595.0Q282 575 250.0 540.0Q218 505 200.5 458.0Q183 411 183 356Q183 299 200.5 251.5Q218 204 250.5 169.0Q283 134 329.5 114.5Q376 95 435 95Q516 95 576 120V300H427V404H698ZM845 480H960V400H962Q982 442 1018.0 468.0Q1054 494 1102 494Q1109 494 1117.0 493.5Q1125 493 1131 491V381Q1119 384 1110.5 385.0Q1102 386 1094 386Q1053 386 1028.0 371.0Q1003 356 989.0 335.0Q975 314 970.0 292.0Q965 270 965 257V0H845ZM1547 288Q1547 311 1540.5 332.0Q1534 353 1520.0 369.0Q1506 385 1484.5 394.5Q1463 404 1434 404Q1380 404 1342.5 371.5Q1305 339 1301 288ZM1667 234Q1667 226 1667.0 218.0Q1667 210 1666 202H1301Q1303 176 1314.5 154.5Q1326 133 1345.0 117.5Q1364 102 1388.0 93.0Q1412 84 1438 84Q1483 84 1514.0 100.5Q1545 117 1565 146L1645 82Q1574 -14 1439 -14Q1383 -14 1336.0 3.5Q1289 21 1254.5 53.0Q1220 85 1200.5 131.5Q1181 178 1181 237Q1181 295 1200.5 342.5Q1220 390 1254.0 423.5Q1288 457 1334.5 475.5Q1381 494 1435 494Q1485 494 1527.5 477.5Q1570 461 1601.0 428.5Q1632 396 1649.5 347.5Q1667 299 1667 234ZM2121 288Q2121 311 2114.5 332.0Q2108 353 2094.0 369.0Q2080 385 2058.5 394.5Q2037 404 2008 404Q1954 404 1916.5 371.5Q1879 339 1875 288ZM2241 234Q2241 226 2241.0 218.0Q2241 210 2240 202H1875Q1877 176 1888.5 154.5Q1900 133 1919.0 117.5Q1938 102 1962.0 93.0Q1986 84 2012 84Q2057 84 2088.0 100.5Q2119 117 2139 146L2219 82Q2148 -14 2013 -14Q1957 -14 1910.0 3.5Q1863 21 1828.5 53.0Q1794 85 1774.5 131.5Q1755 178 1755 237Q1755 295 1774.5 342.5Q1794 390 1828.0 423.5Q1862 457 1908.5 475.5Q1955 494 2009 494Q2059 494 2101.5 477.5Q2144 461 2175.0 428.5Q2206 396 2223.5 347.5Q2241 299 2241 234ZM2357 480H2471V403H2473Q2489 439 2528.5 466.5Q2568 494 2622 494Q2669 494 2702.5 477.5Q2736 461 2757.5 434.0Q2779 407 2789.0 372.0Q2799 337 2799 300V0H2679V266Q2679 287 2676.0 310.0Q2673 333 2663.0 351.5Q2653 370 2635.5 382.0Q2618 394 2589 394Q2560 394 2539.0 382.5Q2518 371 2504.5 353.0Q2491 335 2484.0 311.5Q2477 288 2477 264V0H2357ZM3206 494Q3253 494 3286.5 477.5Q3320 461 3341.5 434.0Q3363 407 3373.0 372.0Q3383 337 3383 300V0H3263V264Q3263 285 3260.0 307.5Q3257 330 3247.5 348.5Q3238 367 3220.5 379.0Q3203 391 3174 391Q3145 391 3124.0 380.0Q3103 369 3089.0 350.5Q3075 332 3068.0 309.0Q3061 286 3061 262V0H2941V756H3061V413H3063Q3070 428 3083.5 442.5Q3097 457 3115.0 468.5Q3133 480 3156.0 487.0Q3179 494 3206 494ZM3495 242Q3495 299 3515.5 345.5Q3536 392 3571.0 425.0Q3606 458 3654.0 476.0Q3702 494 3756 494Q3810 494 3858.0 476.0Q3906 458 3941.0 425.0Q3976 392 3996.5 345.5Q4017 299 4017 242Q4017 185 3996.5 138.0Q3976 91 3941.0 57.5Q3906 24 3858.0 5.0Q3810 -14 3756 -14Q3702 -14 3654.0 5.0Q3606 24 3571.0 57.5Q3536 91 3515.5 138.0Q3495 185 3495 242ZM3617 242Q3617 214 3625.5 186.0Q3634 158 3651.0 136.0Q3668 114 3694.0 100.0Q3720 86 3756 86Q3792 86 3818.0 100.0Q3844 114 3861.0 136.0Q3878 158 3886.5 186.0Q3895 214 3895 242Q3895 270 3886.5 297.5Q3878 325 3861.0 347.0Q3844 369 3818.0 382.5Q3792 396 3756 396Q3720 396 3694.0 382.5Q3668 369 3651.0 347.0Q3634 325 3625.5 297.5Q3617 270 3617 242ZM4571 0H4457V77H4455Q4439 41 4399.5 13.5Q4360 -14 4306 -14Q4259 -14 4225.5 2.5Q4192 19 4170.5 46.0Q4149 73 4139.0 108.0Q4129 143 4129 180V480H4249V214Q4249 193 4252.0 170.0Q4255 147 4265.0 128.5Q4275 110 4292.5 98.0Q4310 86 4339 86Q4367 86 4388.5 97.5Q4410 109 4423.5 127.0Q4437 145 4444.0 168.5Q4451 192 4451 216V480H4571ZM4978 352Q4962 373 4934.0 388.5Q4906 404 4873 404Q4844 404 4820.0 392.0Q4796 380 4796 352Q4796 324 4822.5 312.5Q4849 301 4900 289Q4927 283 4954.5 273.0Q4982 263 5004.5 246.5Q5027 230 5041.0 205.5Q5055 181 5055 146Q5055 102 5038.5 71.5Q5022 41 4994.5 22.0Q4967 3 4930.5 -5.5Q4894 -14 4855 -14Q4799 -14 4746.0 6.5Q4693 27 4658 65L4737 139Q4757 113 4789.0 96.0Q4821 79 4860 79Q4873 79 4886.5 82.0Q4900 85 4911.5 91.5Q4923 98 4930.0 109.0Q4937 120 4937 136Q4937 166 4909.5 179.0Q4882 192 4827 205Q4800 211 4774.5 220.5Q4749 230 4729.0 245.5Q4709 261 4697.0 284.0Q4685 307 4685 341Q4685 381 4701.5 410.0Q4718 439 4745.0 457.5Q4772 476 4806.0 485.0Q4840 494 4876 494Q4928 494 4977.5 476.0Q5027 458 5056 421ZM5497 288Q5497 311 5490.5 332.0Q5484 353 5470.0 369.0Q5456 385 5434.5 394.5Q5413 404 5384 404Q5330 404 5292.5 371.5Q5255 339 5251 288ZM5617 234Q5617 226 5617.0 218.0Q5617 210 5616 202H5251Q5253 176 5264.5 154.5Q5276 133 5295.0 117.5Q5314 102 5338.0 93.0Q5362 84 5388 84Q5433 84 5464.0 100.5Q5495 117 5515 146L5595 82Q5524 -14 5389 -14Q5333 -14 5286.0 3.5Q5239 21 5204.5 53.0Q5170 85 5150.5 131.5Q5131 178 5131 237Q5131 295 5150.5 342.5Q5170 390 5204.0 423.5Q5238 457 5284.5 475.5Q5331 494 5385 494Q5435 494 5477.5 477.5Q5520 461 5551.0 428.5Q5582 396 5599.5 347.5Q5617 299 5617 234Z" fill="currentColor"/>
  </g>
</svg>
